<svg width="128" height="128" viewBox="0 0 128 128" fill="none" xmlns="http://www.w3.org/2000/svg">
<g clip-path="url(#clip0_362_46)">
<rect width="128" height="128" rx="28" fill="black"/>
<path d="M5.35462 122.754C5.61964 133.109 12.5448 132.154 21.7091 131.402C33.1644 130.461 53.0039 119.592 54.4177 104.014M54.4177 104.014C55.2369 94.9877 49.7057 70.6346 46.593 57.8902C45.2885 52.5491 44.3214 47.0167 45.3437 41.6143C46.0655 37.8003 46.8036 34.4493 51.4642 31.6212C60.1443 27.3357 73.9205 33.6966 79.5571 45.4287C81.1639 48.7732 83.1399 51.5901 84.6038 55.9091M54.4177 104.014C54.0152 104.024 53.9049 102.861 49.5046 100.902C44.0043 98.452 25.6992 96.5696 16.2137 98.5157C5.39526 100.735 -10.1541 106.962 -19.4999 119.505C-30.1576 133.809 -30.1045 160.708 -5.04064 165.113C30.4981 171.359 81.5017 158.371 88.073 120.637C90.8274 104.821 91.9695 92.8925 90.4622 81.0733M84.6038 55.9091C79.811 58.6577 79.2696 60.1801 77.5255 62.6244M84.6038 55.9091C88.8935 53.449 94.2606 52.0398 100.271 54.2712C119.851 61.5411 99.4232 84.0636 82.5241 81.2764" stroke="white" stroke-width="6.2764" stroke-linecap="round"/>
<path fill-rule="evenodd" clip-rule="evenodd" d="M58.6684 48.6489C59.4427 47.9501 60.6334 48.0081 61.3272 48.7781L62.2621 49.817C64.2359 52.0085 65.8128 54.6342 66.9184 57.5302C66.8668 57.5343 66.8147 57.5385 66.7625 57.5445C65.5882 57.6795 64.5147 58.2645 63.5472 59.2846L63.5358 59.2527C62.5777 56.6121 61.1833 54.2635 59.4584 52.3482L58.5226 51.3094C57.829 50.5391 57.8941 49.3477 58.6684 48.6489Z" fill="white"/>
<path fill-rule="evenodd" clip-rule="evenodd" d="M66.7519 44.5979C67.5743 43.8557 68.839 43.9172 69.576 44.7351L70.5118 45.7739L70.8959 46.2122C72.7084 48.3321 74.1635 50.8262 75.202 53.5575C75.1103 53.5623 75.0177 53.5694 74.9241 53.5802C73.713 53.7195 72.6092 54.3375 71.6183 55.4176L71.587 55.3296C70.6337 52.702 69.2482 50.3651 67.5339 48.4616L67.533 48.4626L66.5971 47.4238C65.8604 46.6056 65.9296 45.3401 66.7519 44.5979Z" fill="white"/>
</g>
<defs>
<clipPath id="clip0_362_46">
<rect width="128" height="128" rx="28" fill="white"/>
</clipPath>
</defs>
</svg>
